# MagicaVoxel @ Ephtracy

# group
o 

# material
mtllib Tile_002.mtl
usemtl palette

# normals
vn -1 0 0
vn 1 0 0
vn 0 0 1
vn 0 0 -1
vn 0 -1 0
vn 0 1 0

# texcoords
vt 0.00195313 0.5
vt 0.119141 0.5
vt 0.205078 0.5
vt 0.373047 0.5
vt 0.443359 0.5
vt 0.748047 0.5

# verts
v -0.5 0 0.5
v -0.5 0 -0.5
v -0.5 0.1 -0.2
v -0.5 0.1 -0.3
v -0.5 0.2 0.4
v -0.5 0.2 0.1
v -0.5 0.2 -0.1
v -0.5 0.2 -0.2
v -0.5 0.3 0.4
v -0.5 0.3 0.1
v -0.5 0.3 -0.1
v -0.5 0.3 -0.3
v -0.5 0.4 -0.1
v -0.5 0.4 -0.2
v -0.5 0.5 0.3
v -0.5 0.5 0.2
v -0.5 0.5 -0.2
v -0.5 0.5 -0.3
v -0.5 0.5 -0.4
v -0.5 0.5 -0.5
v -0.5 0.6 0.5
v -0.5 0.6 0.4
v -0.5 0.6 0.2
v -0.5 0.6 0.1
v -0.5 0.6 0
v -0.5 0.6 -0.1
v -0.5 0.6 -0.3
v -0.5 0.6 -0.4
v -0.5 0.7 0.4
v -0.5 0.7 0.3
v -0.5 0.7 0.1
v -0.5 0.7 0
v -0.5 1 0.5
v -0.5 1 -0.5
v 0.5 0 0.5
v 0.5 0 -0.5
v 0.5 0.1 -0.2
v 0.5 0.1 -0.4
v 0.5 0.2 0.4
v 0.5 0.2 0.2
v 0.5 0.2 -0.2
v 0.5 0.2 -0.4
v 0.5 0.3 0.4
v 0.5 0.3 0.2
v 0.5 0.4 -0.1
v 0.5 0.4 -0.2
v 0.5 0.5 0.5
v 0.5 0.5 0.4
v 0.5 0.5 0.1
v 0.5 0.5 0
v 0.5 0.5 -0.2
v 0.5 0.5 -0.3
v 0.5 0.5 -0.4
v 0.5 0.5 -0.5
v 0.5 0.6 0.4
v 0.5 0.6 0.1
v 0.5 0.6 -0.3
v 0.5 0.6 -0.4
v 0.5 0.7 0
v 0.5 0.7 -0.1
v 0.5 1 0.5
v 0.5 1 -0.5
v -0.5 0 0.5
v -0.5 0.6 0.5
v -0.5 1 0.5
v -0.4 0.6 0.5
v -0.4 0.7 0.5
v -0.3 0.1 0.5
v -0.3 0.3 0.5
v -0.3 0.5 0.5
v -0.3 0.7 0.5
v -0.2 0.5 0.5
v -0.2 0.6 0.5
v -0.1 0.6 0.5
v -0.1 0.7 0.5
v 0 0.1 0.5
v 0 0.3 0.5
v 0 0.4 0.5
v 0 0.7 0.5
v 0.1 0.3 0.5
v 0.1 0.4 0.5
v 0.2 0.3 0.5
v 0.2 0.6 0.5
v 0.3 0.6 0.5
v 0.3 0.7 0.5
v 0.4 0.5 0.5
v 0.4 0.7 0.5
v 0.5 0 0.5
v 0.5 0.5 0.5
v 0.5 1 0.5
v -0.5 0 -0.5
v -0.5 0.5 -0.5
v -0.5 1 -0.5
v -0.4 0.3 -0.5
v -0.4 0.4 -0.5
v -0.4 0.5 -0.5
v -0.4 0.6 -0.5
v -0.2 0.3 -0.5
v -0.2 0.4 -0.5
v -0.2 0.6 -0.5
v -0.2 0.7 -0.5
v -0.1 0.6 -0.5
v -0.1 0.7 -0.5
v 0 0.2 -0.5
v 0 0.3 -0.5
v 0 0.6 -0.5
v 0 0.7 -0.5
v 0.1 0.6 -0.5
v 0.1 0.7 -0.5
v 0.2 0.2 -0.5
v 0.2 0.3 -0.5
v 0.2 0.5 -0.5
v 0.2 0.6 -0.5
v 0.3 0.5 -0.5
v 0.3 0.6 -0.5
v 0.4 0.5 -0.5
v 0.4 0.6 -0.5
v 0.5 0 -0.5
v 0.5 0.5 -0.5
v 0.5 1 -0.5
v -0.5 0 0.5
v 0.5 0 0.5
v -0.5 0 -0.5
v 0.5 0 -0.5
v -0.5 1 0.5
v 0.5 1 0.5
v -0.3 1 0.3
v -0.2 1 0.3
v 0 1 0.3
v 0.1 1 0.3
v 0.4 1 0.3
v -0.3 1 0.2
v -0.2 1 0.2
v -0.1 1 0.2
v 0 1 0.2
v 0.1 1 0.2
v 0.2 1 0.2
v 0.4 1 0.2
v -0.1 1 0.1
v 0 1 0.1
v 0.1 1 0.1
v 0.2 1 0.1
v -0.3 1 0
v -0.2 1 0
v 0 1 0
v 0.1 1 0
v -0.4 1 -0.1
v -0.3 1 -0.1
v -0.2 1 -0.1
v -0.1 1 -0.1
v 0.2 1 -0.1
v 0.3 1 -0.1
v -0.4 1 -0.2
v -0.3 1 -0.2
v -0.2 1 -0.2
v -0.1 1 -0.2
v 0.1 1 -0.2
v 0.2 1 -0.2
v 0.3 1 -0.2
v 0.4 1 -0.2
v -0.4 1 -0.3
v -0.3 1 -0.3
v -0.2 1 -0.3
v 0.1 1 -0.3
v 0.2 1 -0.3
v 0.3 1 -0.3
v 0.4 1 -0.3
v 0.2 1 -0.4
v 0.3 1 -0.4
v -0.5 1 -0.5
v 0.5 1 -0.5

# faces
f 3/4/1 2/4/1 1/4/1
f 4/4/1 2/4/1 3/4/1
f 5/4/1 3/4/1 1/4/1
f 6/4/1 3/4/1 5/4/1
f 7/4/1 3/4/1 6/4/1
f 8/3/1 4/3/1 3/3/1
f 8/4/1 3/4/1 7/4/1
f 9/4/1 5/4/1 1/4/1
f 9/3/1 6/3/1 5/3/1
f 10/4/1 7/4/1 6/4/1
f 10/3/1 6/3/1 9/3/1
f 11/3/1 8/3/1 7/3/1
f 11/4/1 7/4/1 10/4/1
f 12/4/1 2/4/1 4/4/1
f 12/3/1 8/3/1 11/3/1
f 12/3/1 4/3/1 8/3/1
f 13/4/1 11/4/1 10/4/1
f 13/4/1 10/4/1 9/4/1
f 13/4/1 12/4/1 11/4/1
f 14/4/1 12/4/1 13/4/1
f 15/4/1 13/4/1 9/4/1
f 16/4/1 13/4/1 15/4/1
f 17/4/1 12/4/1 14/4/1
f 17/6/1 14/6/1 13/6/1
f 18/4/1 2/4/1 12/4/1
f 18/4/1 12/4/1 17/4/1
f 19/4/1 2/4/1 18/4/1
f 20/4/1 2/4/1 19/4/1
f 21/4/1 9/4/1 1/4/1
f 21/4/1 15/4/1 9/4/1
f 22/4/1 15/4/1 21/4/1
f 23/4/1 13/4/1 16/4/1
f 23/6/1 16/6/1 15/6/1
f 24/4/1 13/4/1 23/4/1
f 25/4/1 13/4/1 24/4/1
f 26/6/1 17/6/1 13/6/1
f 26/4/1 13/4/1 25/4/1
f 26/6/1 18/6/1 17/6/1
f 27/4/1 19/4/1 18/4/1
f 27/6/1 18/6/1 26/6/1
f 28/6/1 20/6/1 19/6/1
f 28/4/1 19/4/1 27/4/1
f 29/4/1 15/4/1 22/4/1
f 29/6/1 22/6/1 21/6/1
f 30/6/1 24/6/1 23/6/1
f 30/4/1 15/4/1 29/4/1
f 30/6/1 23/6/1 15/6/1
f 31/4/1 25/4/1 24/4/1
f 31/6/1 24/6/1 30/6/1
f 32/6/1 28/6/1 27/6/1
f 32/4/1 25/4/1 31/4/1
f 32/6/1 27/6/1 26/6/1
f 32/6/1 26/6/1 25/6/1
f 33/6/1 30/6/1 29/6/1
f 33/6/1 31/6/1 30/6/1
f 33/6/1 32/6/1 31/6/1
f 33/6/1 29/6/1 21/6/1
f 34/6/1 28/6/1 32/6/1
f 34/6/1 32/6/1 33/6/1
f 34/6/1 20/6/1 28/6/1
f 35/4/2 36/4/2 37/4/2
f 37/4/2 36/4/2 38/4/2
f 35/4/2 37/4/2 39/4/2
f 39/4/2 37/4/2 40/4/2
f 37/3/2 38/3/2 41/3/2
f 40/4/2 37/4/2 41/4/2
f 38/4/2 36/4/2 42/4/2
f 41/3/2 38/3/2 42/3/2
f 39/3/2 40/3/2 43/3/2
f 35/4/2 39/4/2 43/4/2
f 40/4/2 41/4/2 44/4/2
f 43/3/2 40/3/2 44/3/2
f 41/4/2 42/4/2 44/4/2
f 43/4/2 44/4/2 45/4/2
f 44/4/2 42/4/2 45/4/2
f 45/4/2 42/4/2 46/4/2
f 35/4/2 43/4/2 47/4/2
f 43/4/2 45/4/2 47/4/2
f 47/4/2 45/4/2 48/4/2
f 48/4/2 45/4/2 49/4/2
f 49/4/2 45/4/2 50/4/2
f 46/4/2 42/4/2 51/4/2
f 45/6/2 46/6/2 51/6/2
f 51/4/2 42/4/2 52/4/2
f 42/4/2 36/4/2 53/4/2
f 52/4/2 42/4/2 53/4/2
f 53/4/2 36/4/2 54/4/2
f 47/6/2 48/6/2 55/6/2
f 48/4/2 49/4/2 55/4/2
f 49/6/2 50/6/2 56/6/2
f 55/4/2 49/4/2 56/4/2
f 51/6/2 52/6/2 57/6/2
f 52/4/2 53/4/2 57/4/2
f 53/6/2 54/6/2 58/6/2
f 57/4/2 53/4/2 58/4/2
f 50/4/2 45/4/2 59/4/2
f 56/6/2 50/6/2 59/6/2
f 55/6/2 56/6/2 59/6/2
f 57/6/2 58/6/2 60/6/2
f 59/4/2 45/4/2 60/4/2
f 51/6/2 57/6/2 60/6/2
f 45/6/2 51/6/2 60/6/2
f 55/6/2 59/6/2 61/6/2
f 47/6/2 55/6/2 61/6/2
f 59/6/2 60/6/2 61/6/2
f 58/6/2 54/6/2 62/6/2
f 61/6/2 60/6/2 62/6/2
f 60/6/2 58/6/2 62/6/2
f 66/4/3 64/4/3 63/4/3
f 66/6/3 65/6/3 64/6/3
f 67/6/3 65/6/3 66/6/3
f 68/4/3 66/4/3 63/4/3
f 68/4/3 67/4/3 66/4/3
f 69/4/3 67/4/3 68/4/3
f 70/4/3 67/4/3 69/4/3
f 71/6/3 65/6/3 67/6/3
f 71/4/3 67/4/3 70/4/3
f 72/4/3 70/4/3 69/4/3
f 72/6/3 71/6/3 70/6/3
f 73/6/3 71/6/3 72/6/3
f 74/4/3 73/4/3 72/4/3
f 74/6/3 71/6/3 73/6/3
f 75/6/3 65/6/3 71/6/3
f 75/6/3 71/6/3 74/6/3
f 76/4/3 68/4/3 63/4/3
f 76/3/3 69/3/3 68/3/3
f 77/4/3 74/4/3 72/4/3
f 77/3/3 69/3/3 76/3/3
f 77/4/3 75/4/3 74/4/3
f 77/4/3 72/4/3 69/4/3
f 78/4/3 75/4/3 77/4/3
f 79/6/3 65/6/3 75/6/3
f 79/4/3 75/4/3 78/4/3
f 80/4/3 78/4/3 77/4/3
f 80/4/3 77/4/3 76/4/3
f 81/6/3 79/6/3 78/6/3
f 81/4/3 78/4/3 80/4/3
f 82/4/3 80/4/3 76/4/3
f 82/6/3 81/6/3 80/6/3
f 83/6/3 79/6/3 81/6/3
f 83/6/3 81/6/3 82/6/3
f 84/4/3 83/4/3 82/4/3
f 84/6/3 79/6/3 83/6/3
f 85/6/3 65/6/3 79/6/3
f 85/6/3 79/6/3 84/6/3
f 86/4/3 84/4/3 82/4/3
f 86/4/3 85/4/3 84/4/3
f 87/6/3 65/6/3 85/6/3
f 87/4/3 85/4/3 86/4/3
f 88/4/3 76/4/3 63/4/3
f 88/4/3 86/4/3 82/4/3
f 88/4/3 82/4/3 76/4/3
f 89/6/3 87/6/3 86/6/3
f 89/4/3 86/4/3 88/4/3
f 90/6/3 65/6/3 87/6/3
f 90/6/3 87/6/3 89/6/3
f 91/4/4 92/4/4 94/4/4
f 94/4/4 92/4/4 95/4/4
f 92/6/4 93/6/4 96/6/4
f 95/4/4 92/4/4 96/4/4
f 96/6/4 93/6/4 97/6/4
f 94/3/4 95/3/4 98/3/4
f 91/4/4 94/4/4 98/4/4
f 96/4/4 97/4/4 99/4/4
f 98/3/4 95/3/4 99/3/4
f 95/4/4 96/4/4 99/4/4
f 97/6/4 93/6/4 100/6/4
f 99/4/4 97/4/4 100/4/4
f 100/6/4 93/6/4 101/6/4
f 98/4/4 99/4/4 102/4/4
f 99/4/4 100/4/4 102/4/4
f 100/4/4 101/4/4 102/4/4
f 101/6/4 93/6/4 103/6/4
f 102/4/4 101/4/4 103/4/4
f 98/4/4 102/4/4 104/4/4
f 91/4/4 98/4/4 104/4/4
f 104/4/4 102/4/4 105/4/4
f 102/6/4 103/6/4 106/6/4
f 105/4/4 102/4/4 106/4/4
f 103/6/4 93/6/4 107/6/4
f 106/6/4 103/6/4 107/6/4
f 105/4/4 106/4/4 108/4/4
f 106/4/4 107/4/4 108/4/4
f 107/6/4 93/6/4 109/6/4
f 108/4/4 107/4/4 109/4/4
f 104/3/4 105/3/4 110/3/4
f 91/4/4 104/4/4 110/4/4
f 105/4/4 108/4/4 111/4/4
f 110/3/4 105/3/4 111/3/4
f 111/4/4 108/4/4 112/4/4
f 108/6/4 109/6/4 113/6/4
f 112/4/4 108/4/4 113/4/4
f 111/4/4 112/4/4 114/4/4
f 110/4/4 111/4/4 114/4/4
f 112/6/4 113/6/4 114/6/4
f 113/6/4 109/6/4 115/6/4
f 114/6/4 113/6/4 115/6/4
f 110/4/4 114/4/4 116/4/4
f 114/4/4 115/4/4 116/4/4
f 115/6/4 109/6/4 117/6/4
f 116/4/4 115/4/4 117/4/4
f 91/4/4 110/4/4 118/4/4
f 110/4/4 116/4/4 118/4/4
f 116/6/4 117/6/4 119/6/4
f 118/4/4 116/4/4 119/4/4
f 117/6/4 109/6/4 120/6/4
f 119/6/4 117/6/4 120/6/4
f 109/6/4 93/6/4 120/6/4
f 123/4/5 122/4/5 121/4/5
f 124/4/5 122/4/5 123/4/5
f 125/6/6 126/6/6 127/6/6
f 127/6/6 126/6/6 128/6/6
f 128/6/6 126/6/6 129/6/6
f 129/6/6 126/6/6 130/6/6
f 130/6/6 126/6/6 131/6/6
f 125/6/6 127/6/6 132/6/6
f 127/5/6 128/5/6 132/5/6
f 128/6/6 129/6/6 133/6/6
f 132/5/6 128/5/6 133/5/6
f 133/6/6 129/6/6 134/6/6
f 129/2/6 130/2/6 135/2/6
f 134/6/6 129/6/6 135/6/6
f 130/5/6 131/5/6 136/5/6
f 135/2/6 130/2/6 136/2/6
f 136/5/6 131/5/6 137/5/6
f 131/6/6 126/6/6 138/6/6
f 137/5/6 131/5/6 138/5/6
f 134/2/6 135/2/6 139/2/6
f 133/6/6 134/6/6 139/6/6
f 132/6/6 133/6/6 139/6/6
f 135/1/6 136/1/6 140/1/6
f 139/2/6 135/2/6 140/2/6
f 136/2/6 137/2/6 141/2/6
f 140/1/6 136/1/6 141/1/6
f 137/6/6 138/6/6 142/6/6
f 141/2/6 137/2/6 142/2/6
f 139/6/6 140/6/6 143/6/6
f 125/6/6 132/6/6 143/6/6
f 132/6/6 139/6/6 143/6/6
f 143/6/6 140/6/6 144/6/6
f 140/2/6 141/2/6 145/2/6
f 144/6/6 140/6/6 145/6/6
f 141/6/6 142/6/6 146/6/6
f 145/2/6 141/2/6 146/2/6
f 125/6/6 143/6/6 147/6/6
f 143/2/6 144/2/6 148/2/6
f 147/6/6 143/6/6 148/6/6
f 144/6/6 145/6/6 149/6/6
f 148/2/6 144/2/6 149/2/6
f 145/6/6 146/6/6 149/6/6
f 149/6/6 146/6/6 150/6/6
f 142/6/6 138/6/6 151/6/6
f 150/6/6 146/6/6 151/6/6
f 146/6/6 142/6/6 151/6/6
f 151/6/6 138/6/6 152/6/6
f 147/2/6 148/2/6 153/2/6
f 125/6/6 147/6/6 153/6/6
f 148/1/6 149/1/6 154/1/6
f 153/2/6 148/2/6 154/2/6
f 149/2/6 150/2/6 155/2/6
f 154/1/6 149/1/6 155/1/6
f 150/6/6 151/6/6 156/6/6
f 155/2/6 150/2/6 156/2/6
f 156/6/6 151/6/6 157/6/6
f 151/2/6 152/2/6 158/2/6
f 157/6/6 151/6/6 158/6/6
f 152/6/6 138/6/6 159/6/6
f 158/2/6 152/2/6 159/2/6
f 138/6/6 126/6/6 160/6/6
f 159/6/6 138/6/6 160/6/6
f 153/5/6 154/5/6 161/5/6
f 125/6/6 153/6/6 161/6/6
f 154/2/6 155/2/6 162/2/6
f 161/5/6 154/5/6 162/5/6
f 156/6/6 157/6/6 163/6/6
f 162/2/6 155/2/6 163/2/6
f 155/6/6 156/6/6 163/6/6
f 157/2/6 158/2/6 164/2/6
f 163/6/6 157/6/6 164/6/6
f 158/1/6 159/1/6 165/1/6
f 164/2/6 158/2/6 165/2/6
f 159/2/6 160/2/6 166/2/6
f 165/1/6 159/1/6 166/1/6
f 160/6/6 126/6/6 167/6/6
f 166/2/6 160/2/6 167/2/6
f 165/2/6 166/2/6 168/2/6
f 163/6/6 164/6/6 168/6/6
f 162/6/6 163/6/6 168/6/6
f 161/6/6 162/6/6 168/6/6
f 164/6/6 165/6/6 168/6/6
f 166/6/6 167/6/6 169/6/6
f 168/2/6 166/2/6 169/2/6
f 161/6/6 168/6/6 170/6/6
f 125/6/6 161/6/6 170/6/6
f 168/6/6 169/6/6 170/6/6
f 167/6/6 126/6/6 171/6/6
f 170/6/6 169/6/6 171/6/6
f 169/6/6 167/6/6 171/6/6
