# MagicaVoxel @ Ephtracy

# group
o 

# material
mtllib Tlie_001.mtl
usemtl palette

# normals
vn -1 0 0
vn 1 0 0
vn 0 0 1
vn 0 0 -1
vn 0 -1 0
vn 0 1 0

# texcoords
vt 0.205078 0.5
vt 0.373047 0.5
vt 0.443359 0.5
vt 0.748047 0.5

# verts
v -0.5 0 0.5
v -0.5 0 -0.5
v -0.5 0.1 -0.2
v -0.5 0.1 -0.3
v -0.5 0.2 0.4
v -0.5 0.2 0.1
v -0.5 0.2 -0.1
v -0.5 0.2 -0.2
v -0.5 0.3 0.4
v -0.5 0.3 0.1
v -0.5 0.3 -0.1
v -0.5 0.3 -0.3
v -0.5 0.4 -0.1
v -0.5 0.4 -0.2
v -0.5 0.5 0.3
v -0.5 0.5 0.2
v -0.5 0.5 -0.2
v -0.5 0.5 -0.3
v -0.5 0.5 -0.4
v -0.5 0.5 -0.5
v -0.5 0.6 0.5
v -0.5 0.6 0.4
v -0.5 0.6 0.2
v -0.5 0.6 0.1
v -0.5 0.6 0
v -0.5 0.6 -0.1
v -0.5 0.6 -0.3
v -0.5 0.6 -0.4
v -0.5 0.7 0.4
v -0.5 0.7 0.3
v -0.5 0.7 0.1
v -0.5 0.7 0
v -0.5 1 0.5
v -0.5 1 -0.5
v 0.5 0 0.5
v 0.5 0 -0.5
v 0.5 0.1 -0.2
v 0.5 0.1 -0.4
v 0.5 0.2 0.4
v 0.5 0.2 0.2
v 0.5 0.2 -0.2
v 0.5 0.2 -0.4
v 0.5 0.3 0.4
v 0.5 0.3 0.2
v 0.5 0.4 -0.1
v 0.5 0.4 -0.2
v 0.5 0.5 0.5
v 0.5 0.5 0.4
v 0.5 0.5 0.1
v 0.5 0.5 0
v 0.5 0.5 -0.2
v 0.5 0.5 -0.3
v 0.5 0.5 -0.4
v 0.5 0.5 -0.5
v 0.5 0.6 0.4
v 0.5 0.6 0.1
v 0.5 0.6 -0.3
v 0.5 0.6 -0.4
v 0.5 0.7 0
v 0.5 0.7 -0.1
v 0.5 1 0.5
v 0.5 1 -0.5
v -0.5 0 0.5
v -0.5 0.6 0.5
v -0.5 1 0.5
v -0.4 0.6 0.5
v -0.4 0.7 0.5
v -0.3 0.1 0.5
v -0.3 0.3 0.5
v -0.3 0.5 0.5
v -0.3 0.7 0.5
v -0.2 0.5 0.5
v -0.2 0.6 0.5
v -0.1 0.6 0.5
v -0.1 0.7 0.5
v 0 0.1 0.5
v 0 0.3 0.5
v 0 0.4 0.5
v 0 0.7 0.5
v 0.1 0.3 0.5
v 0.1 0.4 0.5
v 0.2 0.3 0.5
v 0.2 0.6 0.5
v 0.3 0.6 0.5
v 0.3 0.7 0.5
v 0.4 0.5 0.5
v 0.4 0.7 0.5
v 0.5 0 0.5
v 0.5 0.5 0.5
v 0.5 1 0.5
v -0.5 0 -0.5
v -0.5 0.5 -0.5
v -0.5 1 -0.5
v -0.4 0.3 -0.5
v -0.4 0.4 -0.5
v -0.4 0.5 -0.5
v -0.4 0.6 -0.5
v -0.2 0.3 -0.5
v -0.2 0.4 -0.5
v -0.2 0.6 -0.5
v -0.2 0.7 -0.5
v -0.1 0.6 -0.5
v -0.1 0.7 -0.5
v 0 0.2 -0.5
v 0 0.3 -0.5
v 0 0.6 -0.5
v 0 0.7 -0.5
v 0.1 0.6 -0.5
v 0.1 0.7 -0.5
v 0.2 0.2 -0.5
v 0.2 0.3 -0.5
v 0.2 0.5 -0.5
v 0.2 0.6 -0.5
v 0.3 0.5 -0.5
v 0.3 0.6 -0.5
v 0.4 0.5 -0.5
v 0.4 0.6 -0.5
v 0.5 0 -0.5
v 0.5 0.5 -0.5
v 0.5 1 -0.5
v -0.5 0 0.5
v 0.5 0 0.5
v -0.5 0 -0.5
v 0.5 0 -0.5
v -0.5 1 0.5
v 0.5 1 0.5
v -0.3 1 0.3
v -0.2 1 0.3
v 0.1 1 0.3
v 0.4 1 0.3
v -0.3 1 0.2
v -0.2 1 0.2
v 0 1 0.2
v 0.1 1 0.2
v 0.4 1 0.2
v 0 1 0.1
v 0.1 1 0.1
v -0.2 1 -0.1
v -0.1 1 -0.1
v -0.4 1 -0.2
v -0.2 1 -0.2
v -0.1 1 -0.2
v 0.2 1 -0.2
v 0.4 1 -0.2
v -0.4 1 -0.3
v -0.2 1 -0.3
v 0.2 1 -0.3
v 0.4 1 -0.3
v -0.5 1 -0.5
v 0.5 1 -0.5

# faces
f 3/2/1 2/2/1 1/2/1
f 4/2/1 2/2/1 3/2/1
f 5/2/1 3/2/1 1/2/1
f 6/2/1 3/2/1 5/2/1
f 7/2/1 3/2/1 6/2/1
f 8/1/1 4/1/1 3/1/1
f 8/2/1 3/2/1 7/2/1
f 9/2/1 5/2/1 1/2/1
f 9/1/1 6/1/1 5/1/1
f 10/2/1 7/2/1 6/2/1
f 10/1/1 6/1/1 9/1/1
f 11/1/1 8/1/1 7/1/1
f 11/2/1 7/2/1 10/2/1
f 12/2/1 2/2/1 4/2/1
f 12/1/1 8/1/1 11/1/1
f 12/1/1 4/1/1 8/1/1
f 13/2/1 11/2/1 10/2/1
f 13/2/1 10/2/1 9/2/1
f 13/2/1 12/2/1 11/2/1
f 14/2/1 12/2/1 13/2/1
f 15/2/1 13/2/1 9/2/1
f 16/2/1 13/2/1 15/2/1
f 17/2/1 12/2/1 14/2/1
f 17/4/1 14/4/1 13/4/1
f 18/2/1 2/2/1 12/2/1
f 18/2/1 12/2/1 17/2/1
f 19/2/1 2/2/1 18/2/1
f 20/2/1 2/2/1 19/2/1
f 21/2/1 9/2/1 1/2/1
f 21/2/1 15/2/1 9/2/1
f 22/2/1 15/2/1 21/2/1
f 23/2/1 13/2/1 16/2/1
f 23/4/1 16/4/1 15/4/1
f 24/2/1 13/2/1 23/2/1
f 25/2/1 13/2/1 24/2/1
f 26/4/1 17/4/1 13/4/1
f 26/2/1 13/2/1 25/2/1
f 26/4/1 18/4/1 17/4/1
f 27/2/1 19/2/1 18/2/1
f 27/4/1 18/4/1 26/4/1
f 28/4/1 20/4/1 19/4/1
f 28/2/1 19/2/1 27/2/1
f 29/2/1 15/2/1 22/2/1
f 29/4/1 22/4/1 21/4/1
f 30/4/1 24/4/1 23/4/1
f 30/2/1 15/2/1 29/2/1
f 30/4/1 23/4/1 15/4/1
f 31/2/1 25/2/1 24/2/1
f 31/4/1 24/4/1 30/4/1
f 32/4/1 28/4/1 27/4/1
f 32/2/1 25/2/1 31/2/1
f 32/4/1 27/4/1 26/4/1
f 32/4/1 26/4/1 25/4/1
f 33/4/1 30/4/1 29/4/1
f 33/4/1 31/4/1 30/4/1
f 33/4/1 32/4/1 31/4/1
f 33/4/1 29/4/1 21/4/1
f 34/4/1 28/4/1 32/4/1
f 34/4/1 32/4/1 33/4/1
f 34/4/1 20/4/1 28/4/1
f 35/2/2 36/2/2 37/2/2
f 37/2/2 36/2/2 38/2/2
f 35/2/2 37/2/2 39/2/2
f 39/2/2 37/2/2 40/2/2
f 37/1/2 38/1/2 41/1/2
f 40/2/2 37/2/2 41/2/2
f 38/2/2 36/2/2 42/2/2
f 41/1/2 38/1/2 42/1/2
f 39/1/2 40/1/2 43/1/2
f 35/2/2 39/2/2 43/2/2
f 40/2/2 41/2/2 44/2/2
f 43/1/2 40/1/2 44/1/2
f 41/2/2 42/2/2 44/2/2
f 43/2/2 44/2/2 45/2/2
f 44/2/2 42/2/2 45/2/2
f 45/2/2 42/2/2 46/2/2
f 35/2/2 43/2/2 47/2/2
f 43/2/2 45/2/2 47/2/2
f 47/2/2 45/2/2 48/2/2
f 48/2/2 45/2/2 49/2/2
f 49/2/2 45/2/2 50/2/2
f 46/2/2 42/2/2 51/2/2
f 45/4/2 46/4/2 51/4/2
f 51/2/2 42/2/2 52/2/2
f 42/2/2 36/2/2 53/2/2
f 52/2/2 42/2/2 53/2/2
f 53/2/2 36/2/2 54/2/2
f 47/4/2 48/4/2 55/4/2
f 48/2/2 49/2/2 55/2/2
f 49/4/2 50/4/2 56/4/2
f 55/2/2 49/2/2 56/2/2
f 51/4/2 52/4/2 57/4/2
f 52/2/2 53/2/2 57/2/2
f 53/4/2 54/4/2 58/4/2
f 57/2/2 53/2/2 58/2/2
f 50/2/2 45/2/2 59/2/2
f 56/4/2 50/4/2 59/4/2
f 55/4/2 56/4/2 59/4/2
f 57/4/2 58/4/2 60/4/2
f 59/2/2 45/2/2 60/2/2
f 51/4/2 57/4/2 60/4/2
f 45/4/2 51/4/2 60/4/2
f 55/4/2 59/4/2 61/4/2
f 47/4/2 55/4/2 61/4/2
f 59/4/2 60/4/2 61/4/2
f 58/4/2 54/4/2 62/4/2
f 61/4/2 60/4/2 62/4/2
f 60/4/2 58/4/2 62/4/2
f 66/2/3 64/2/3 63/2/3
f 66/4/3 65/4/3 64/4/3
f 67/4/3 65/4/3 66/4/3
f 68/2/3 66/2/3 63/2/3
f 68/2/3 67/2/3 66/2/3
f 69/2/3 67/2/3 68/2/3
f 70/2/3 67/2/3 69/2/3
f 71/4/3 65/4/3 67/4/3
f 71/2/3 67/2/3 70/2/3
f 72/2/3 70/2/3 69/2/3
f 72/4/3 71/4/3 70/4/3
f 73/4/3 71/4/3 72/4/3
f 74/2/3 73/2/3 72/2/3
f 74/4/3 71/4/3 73/4/3
f 75/4/3 65/4/3 71/4/3
f 75/4/3 71/4/3 74/4/3
f 76/2/3 68/2/3 63/2/3
f 76/1/3 69/1/3 68/1/3
f 77/2/3 74/2/3 72/2/3
f 77/1/3 69/1/3 76/1/3
f 77/2/3 75/2/3 74/2/3
f 77/2/3 72/2/3 69/2/3
f 78/2/3 75/2/3 77/2/3
f 79/4/3 65/4/3 75/4/3
f 79/2/3 75/2/3 78/2/3
f 80/2/3 78/2/3 77/2/3
f 80/2/3 77/2/3 76/2/3
f 81/4/3 79/4/3 78/4/3
f 81/2/3 78/2/3 80/2/3
f 82/2/3 80/2/3 76/2/3
f 82/4/3 81/4/3 80/4/3
f 83/4/3 79/4/3 81/4/3
f 83/4/3 81/4/3 82/4/3
f 84/2/3 83/2/3 82/2/3
f 84/4/3 79/4/3 83/4/3
f 85/4/3 65/4/3 79/4/3
f 85/4/3 79/4/3 84/4/3
f 86/2/3 84/2/3 82/2/3
f 86/2/3 85/2/3 84/2/3
f 87/4/3 65/4/3 85/4/3
f 87/2/3 85/2/3 86/2/3
f 88/2/3 76/2/3 63/2/3
f 88/2/3 86/2/3 82/2/3
f 88/2/3 82/2/3 76/2/3
f 89/4/3 87/4/3 86/4/3
f 89/2/3 86/2/3 88/2/3
f 90/4/3 65/4/3 87/4/3
f 90/4/3 87/4/3 89/4/3
f 91/2/4 92/2/4 94/2/4
f 94/2/4 92/2/4 95/2/4
f 92/4/4 93/4/4 96/4/4
f 95/2/4 92/2/4 96/2/4
f 96/4/4 93/4/4 97/4/4
f 94/1/4 95/1/4 98/1/4
f 91/2/4 94/2/4 98/2/4
f 96/2/4 97/2/4 99/2/4
f 98/1/4 95/1/4 99/1/4
f 95/2/4 96/2/4 99/2/4
f 97/4/4 93/4/4 100/4/4
f 99/2/4 97/2/4 100/2/4
f 100/4/4 93/4/4 101/4/4
f 98/2/4 99/2/4 102/2/4
f 99/2/4 100/2/4 102/2/4
f 100/2/4 101/2/4 102/2/4
f 101/4/4 93/4/4 103/4/4
f 102/2/4 101/2/4 103/2/4
f 98/2/4 102/2/4 104/2/4
f 91/2/4 98/2/4 104/2/4
f 104/2/4 102/2/4 105/2/4
f 102/4/4 103/4/4 106/4/4
f 105/2/4 102/2/4 106/2/4
f 103/4/4 93/4/4 107/4/4
f 106/4/4 103/4/4 107/4/4
f 105/2/4 106/2/4 108/2/4
f 106/2/4 107/2/4 108/2/4
f 107/4/4 93/4/4 109/4/4
f 108/2/4 107/2/4 109/2/4
f 104/1/4 105/1/4 110/1/4
f 91/2/4 104/2/4 110/2/4
f 105/2/4 108/2/4 111/2/4
f 110/1/4 105/1/4 111/1/4
f 111/2/4 108/2/4 112/2/4
f 108/4/4 109/4/4 113/4/4
f 112/2/4 108/2/4 113/2/4
f 111/2/4 112/2/4 114/2/4
f 110/2/4 111/2/4 114/2/4
f 112/4/4 113/4/4 114/4/4
f 113/4/4 109/4/4 115/4/4
f 114/4/4 113/4/4 115/4/4
f 110/2/4 114/2/4 116/2/4
f 114/2/4 115/2/4 116/2/4
f 115/4/4 109/4/4 117/4/4
f 116/2/4 115/2/4 117/2/4
f 91/2/4 110/2/4 118/2/4
f 110/2/4 116/2/4 118/2/4
f 116/4/4 117/4/4 119/4/4
f 118/2/4 116/2/4 119/2/4
f 117/4/4 109/4/4 120/4/4
f 119/4/4 117/4/4 120/4/4
f 109/4/4 93/4/4 120/4/4
f 123/2/5 122/2/5 121/2/5
f 124/2/5 122/2/5 123/2/5
f 125/4/6 126/4/6 127/4/6
f 127/4/6 126/4/6 128/4/6
f 128/4/6 126/4/6 129/4/6
f 129/4/6 126/4/6 130/4/6
f 125/4/6 127/4/6 131/4/6
f 127/3/6 128/3/6 131/3/6
f 128/4/6 129/4/6 132/4/6
f 131/3/6 128/3/6 132/3/6
f 132/4/6 129/4/6 133/4/6
f 129/3/6 130/3/6 134/3/6
f 133/4/6 129/4/6 134/4/6
f 130/4/6 126/4/6 135/4/6
f 134/3/6 130/3/6 135/3/6
f 133/3/6 134/3/6 136/3/6
f 132/4/6 133/4/6 136/4/6
f 131/4/6 132/4/6 136/4/6
f 134/4/6 135/4/6 137/4/6
f 136/3/6 134/3/6 137/3/6
f 131/4/6 136/4/6 138/4/6
f 136/4/6 137/4/6 138/4/6
f 138/4/6 137/4/6 139/4/6
f 125/4/6 131/4/6 140/4/6
f 131/4/6 138/4/6 140/4/6
f 138/3/6 139/3/6 141/3/6
f 140/4/6 138/4/6 141/4/6
f 139/4/6 137/4/6 142/4/6
f 141/3/6 139/3/6 142/3/6
f 137/4/6 135/4/6 143/4/6
f 142/4/6 137/4/6 143/4/6
f 135/4/6 126/4/6 144/4/6
f 143/4/6 135/4/6 144/4/6
f 140/3/6 141/3/6 145/3/6
f 125/4/6 140/4/6 145/4/6
f 142/4/6 143/4/6 146/4/6
f 145/3/6 141/3/6 146/3/6
f 141/4/6 142/4/6 146/4/6
f 143/3/6 144/3/6 147/3/6
f 146/4/6 143/4/6 147/4/6
f 144/4/6 126/4/6 148/4/6
f 147/3/6 144/3/6 148/3/6
f 125/4/6 145/4/6 149/4/6
f 145/4/6 146/4/6 149/4/6
f 147/4/6 148/4/6 149/4/6
f 146/4/6 147/4/6 149/4/6
f 148/4/6 126/4/6 150/4/6
f 149/4/6 148/4/6 150/4/6
